# xmcd
#
# Track frame offsets:
#	150
#	18774
#	37128
#	58147
#	74219
#	90034
#	104669
#	118441
#	137428
#	157439
#	175606
#	188027
#
# Disc length: 2780 seconds
#
# Revision: 0
# Processed by: cddbd v1.5.1PL2 Copyright (c) Steve Scherf et al.
# Submitted via: EasyCDDAExtractor 9.1.0.1
#
DISCID=ad0ada0c
DTITLE=Various Artist - Brasil P'ra Dançar
DYEAR=1900
DGENRE=Variada
TTITLE0=Banda Mar Azul - Depois Do Prazer
TTITLE1=Banda Mar Azul - Beleza Rara
TTITLE2=Banda Mar Azul - Milla
TTITLE3=Banda Mar Azul - Tic, Tic, Tac
TTITLE4=Carrilio - Disco Samba
TTITLE5=Covado Featuring Diana Miranda - Amazonia
TTITLE6=Carrilio - Carneval En Rio "Rádio Version"
TTITLE7=Ritmo Do Rio - Garota Nacional
TTITLE8=Carrilio - Lambada
TTITLE9=Banda Axé Brasil - Nobre Vagabundo
TTITLE10=Banda Axé Brasil - Vermelho
TTITLE11=Banda Mar Azul - Beleza Rara
EXTD=
EXTT0=
EXTT1=
EXTT2=
EXTT3=
EXTT4=
EXTT5=
EXTT6=
EXTT7=
EXTT8=
EXTT9=
EXTT10=
EXTT11=
PLAYORDER=
